<svg aria-hidden="true" style="width:0;height:0;position:absolute;overflow:hidden" xmlns="http://www.w3.org/2000/svg"><defs><symbol id="icon-gmail" viewBox="0 0 32 32"><path d="M16 0c8.836 0 16 7.163 16 16 0 8.836-7.164 16-16 16-8.835 0-16-7.164-16-16C0 7.163 7.165 0 16 0zm8.001 22.556c.736 0 1.332-.597 1.332-1.332V10.665c0-.735-.597-1.332-1.332-1.332H7.998c-.735 0-1.332.597-1.332 1.332v10.559c0 .735.597 1.332 1.332 1.332h16.003zM16 17.823 8.733 12.78l-.015 8.997H23.25V12.78l-7.251 5.043zm6.899-7.712A2541.91 2541.91 0 0 0 16 14.956l-6.937-4.845h13.836z"/></symbol><symbol id="icon-linkedin" viewBox="0 0 32 32"><path d="M16 0C7.164 0 0 7.164 0 16s7.164 16 16 16 16-7.164 16-16S24.836 0 16 0zm-2.667 21.333h-2.667v-8h2.667v8zM12 12.145a1.473 1.473 0 0 1-1.467-1.479c0-.816.656-1.479 1.467-1.479s1.467.663 1.467 1.479c0 .817-.657 1.479-1.467 1.479zm10.667 9.188h-2.664v-3.815c0-2.508-2.669-2.296-2.669 0v3.815h-2.667v-8h2.667v1.457c1.163-2.155 5.333-2.315 5.333 2.064v4.479z"/></symbol><symbol id="icon-github" viewBox="0 0 32 32"><path d="M16 0C7.164 0 0 7.164 0 16s7.164 16 16 16 16-7.164 16-16S24.836 0 16 0zm2.957 24.821c-.472.092-.624-.199-.624-.448v-2.561c0-.871-.305-1.439-.641-1.728 2.08-.231 4.264-1.02 4.264-4.605 0-1.02-.364-1.852-.961-2.505.096-.236.416-1.185-.092-2.471 0 0-.783-.251-2.564.956A9.078 9.078 0 0 0 16 11.147a9.015 9.015 0 0 0-2.337.313c-1.783-1.207-2.567-.956-2.567-.956-.505 1.285-.187 2.235-.089 2.469a3.61 3.61 0 0 0-.963 2.505c0 3.576 2.179 4.376 4.252 4.612-.267.233-.508.644-.592 1.248-.533.239-1.884.651-2.716-.776 0 0-.493-.896-1.431-.963 0 0-.911-.012-.064.568 0 0 .613.287 1.036 1.365 0 0 .54 1.667 3.137 1.101v1.737c0 .247-.151.536-.616.449a9.334 9.334 0 1 1 5.906 0z"/></symbol><symbol id="icon-whatsapp" viewBox="0 0 32 32"><path d="M16.041 8.229c-4.241 0-7.689 3.448-7.691 7.688-.001 1.731.507 3.027 1.359 4.383l-.776 2.837 2.909-.764c1.304.773 2.548 1.237 4.193 1.239 4.237 0 7.689-3.449 7.691-7.688a7.686 7.686 0 0 0-7.685-7.695zm4.523 10.992c-.192.54-1.116 1.032-1.56 1.099-.399.06-.903.084-1.456-.092a13.286 13.286 0 0 1-1.317-.487c-2.319-1.001-3.832-3.336-3.948-3.489-.116-.155-.944-1.253-.944-2.391s.597-1.697.809-1.928a.848.848 0 0 1 .616-.289l.443.008c.141.007.332-.053.52.397.192.463.655 1.6.712 1.716s.096.251.019.405c-.077.155-.116.251-.231.385l-.347.405c-.116.115-.236.24-.101.472s.599.988 1.285 1.601c.883.788 1.628 1.032 1.859 1.147s.365.096.501-.057c.135-.155.577-.675.732-.907.155-.231.308-.193.52-.116s1.348.636 1.579.752.385.173.443.269c.06.096.06.559-.133 1.099zM16 0C7.164 0 0 7.164 0 16s7.164 16 16 16 16-7.164 16-16S24.836 0 16 0zm.039 25.173a9.26 9.26 0 0 1-4.424-1.125l-4.903 1.285 1.312-4.793a9.238 9.238 0 0 1-1.235-4.624c.001-5.1 4.151-9.249 9.249-9.249a9.189 9.189 0 0 1 6.543 2.712 9.19 9.19 0 0 1 2.707 6.544c-.001 5.1-4.151 9.251-9.249 9.251z"/></symbol><symbol id="icon-facebook" viewBox="0 0 32 32"><path d="M16 0C7.164 0 0 7.164 0 16s7.164 16 16 16 16-7.164 16-16S24.836 0 16 0zm4 10.667h-1.8c-.717 0-.867.295-.867 1.037v1.629H20L19.721 16h-2.388v9.333h-4V16h-2.667v-2.667h2.667v-3.077c0-2.359 1.241-3.589 4.039-3.589H20v4z"/></symbol><symbol id="icon-instagram" viewBox="0 0 32 32"><path d="M19.772 8.403c-.984-.045-1.28-.053-3.772-.053s-2.787.009-3.771.053c-2.532.116-3.711 1.315-3.827 3.827-.044.984-.055 1.279-.055 3.771s.011 2.787.055 3.772c.116 2.505 1.289 3.711 3.827 3.827.983.044 1.279.055 3.771.055 2.493 0 2.788-.009 3.772-.055 2.532-.115 3.709-1.317 3.827-3.827.044-.984.053-1.28.053-3.772s-.009-2.787-.053-3.771c-.117-2.511-1.297-3.711-3.827-3.827zM16 20.793a4.792 4.792 0 1 1-.001-9.585A4.792 4.792 0 0 1 16 20.793zm4.983-8.654a1.12 1.12 0 1 1-.001-2.239 1.12 1.12 0 0 1 .001 2.239zM19.111 16a3.11 3.11 0 1 1-6.221 0 3.11 3.11 0 0 1 6.221 0zM16 0C7.164 0 0 7.164 0 16s7.164 16 16 16 16-7.164 16-16S24.836 0 16 0zm9.277 19.848c-.153 3.393-2.043 5.273-5.428 5.429-.996.045-1.315.056-3.849.056s-2.852-.011-3.848-.056c-3.392-.156-5.273-2.039-5.429-5.429-.045-.995-.056-1.313-.056-3.848s.011-2.852.056-3.848c.156-3.392 2.039-5.273 5.429-5.428.996-.047 1.313-.057 3.848-.057s2.853.011 3.849.057c3.393.156 5.276 2.043 5.428 5.428.045.996.056 1.313.056 3.848s-.011 2.853-.056 3.848z"/></symbol><symbol id="icon-chevrons-up" viewBox="0 0 24 24"><path d="m17.707 10.293-5-5a.999.999 0 0 0-1.414 0l-5 5a.999.999 0 1 0 1.414 1.414L12 7.414l4.293 4.293a.999.999 0 1 0 1.414-1.414zm0 7-5-5a.999.999 0 0 0-1.414 0l-5 5a.999.999 0 1 0 1.414 1.414L12 14.414l4.293 4.293a.999.999 0 1 0 1.414-1.414z"/></symbol><symbol id="icon-chevrons-down" viewBox="0 0 24 24"><path d="m6.293 13.707 5 5a.999.999 0 0 0 1.414 0l5-5a.999.999 0 1 0-1.414-1.414L12 16.586l-4.293-4.293a.999.999 0 1 0-1.414 1.414zm0-7 5 5a.999.999 0 0 0 1.414 0l5-5a.999.999 0 1 0-1.414-1.414L12 9.586 7.707 5.293a.999.999 0 1 0-1.414 1.414z"/></symbol></defs></svg>