<svg aria-hidden="true" style="position: absolute; width: 0; height: 0; overflow: hidden;" version="1.1" xmlns="http://www.w3.org/2000/svg" xmlns:xlink="http://www.w3.org/1999/xlink">
<defs>
<symbol id="icon-gmail" viewBox="0 0 32 32">
<path d="M16 0c8.836 0 16 7.163 16 16 0 8.836-7.164 16-16 16-8.835 0-16-7.164-16-16 0-8.837 7.165-16 16-16zM24.001 22.556c0.736 0 1.332-0.597 1.332-1.332v-10.559c0-0.735-0.597-1.332-1.332-1.332h-16.003c-0.735 0-1.332 0.597-1.332 1.332v10.559c0 0.735 0.597 1.332 1.332 1.332h16.003zM16 17.823l-7.267-5.043-0.015 8.997h14.532v-8.997l-7.251 5.043zM22.899 10.111c-2.036 1.419-6.899 4.845-6.899 4.845l-6.937-4.845h13.836z"></path>
</symbol>
<symbol id="icon-linkedin" viewBox="0 0 32 32">
<path d="M16 0c-8.836 0-16 7.164-16 16s7.164 16 16 16 16-7.164 16-16-7.164-16-16-16zM13.333 21.333h-2.667v-8h2.667v8zM12 12.145c-0.809 0-1.467-0.661-1.467-1.479 0-0.816 0.656-1.479 1.467-1.479s1.467 0.663 1.467 1.479c0 0.817-0.657 1.479-1.467 1.479zM22.667 21.333h-2.664v-3.815c0-2.508-2.669-2.296-2.669 0v3.815h-2.667v-8h2.667v1.457c1.163-2.155 5.333-2.315 5.333 2.064v4.479z"></path>
</symbol>
<symbol id="icon-github" viewBox="0 0 32 32">
<path d="M16 0c-8.836 0-16 7.164-16 16s7.164 16 16 16 16-7.164 16-16-7.164-16-16-16zM18.957 24.821c-0.472 0.092-0.624-0.199-0.624-0.448v-2.561c0-0.871-0.305-1.439-0.641-1.728 2.080-0.231 4.264-1.020 4.264-4.605 0-1.020-0.364-1.852-0.961-2.505 0.096-0.236 0.416-1.185-0.092-2.471 0 0-0.783-0.251-2.564 0.956-0.748-0.205-1.545-0.308-2.339-0.312-0.793 0.004-1.591 0.107-2.337 0.313-1.783-1.207-2.567-0.956-2.567-0.956-0.505 1.285-0.187 2.235-0.089 2.469-0.597 0.653-0.963 1.485-0.963 2.505 0 3.576 2.179 4.376 4.252 4.612-0.267 0.233-0.508 0.644-0.592 1.248-0.533 0.239-1.884 0.651-2.716-0.776 0 0-0.493-0.896-1.431-0.963 0 0-0.911-0.012-0.064 0.568 0 0 0.613 0.287 1.036 1.365 0 0 0.54 1.667 3.137 1.101v1.737c0 0.247-0.151 0.536-0.616 0.449-3.709-1.233-6.384-4.732-6.384-8.855 0-5.156 4.18-9.333 9.333-9.333s9.333 4.177 9.333 9.333c0 4.121-2.671 7.62-6.376 8.855z"></path>
</symbol>
<symbol id="icon-whatsapp" viewBox="0 0 32 32">
<path d="M16.041 8.229c-4.241 0-7.689 3.448-7.691 7.688-0.001 1.731 0.507 3.027 1.359 4.383l-0.776 2.837 2.909-0.764c1.304 0.773 2.548 1.237 4.193 1.239 4.237 0 7.689-3.449 7.691-7.688 0.001-4.249-3.433-7.693-7.685-7.695zM20.564 19.221c-0.192 0.54-1.116 1.032-1.56 1.099-0.399 0.060-0.903 0.084-1.456-0.092-0.336-0.107-0.767-0.249-1.317-0.487-2.319-1.001-3.832-3.336-3.948-3.489-0.116-0.155-0.944-1.253-0.944-2.391s0.597-1.697 0.809-1.928c0.212-0.231 0.461-0.289 0.616-0.289l0.443 0.008c0.141 0.007 0.332-0.053 0.52 0.397 0.192 0.463 0.655 1.6 0.712 1.716s0.096 0.251 0.019 0.405c-0.077 0.155-0.116 0.251-0.231 0.385l-0.347 0.405c-0.116 0.115-0.236 0.24-0.101 0.472s0.599 0.988 1.285 1.601c0.883 0.788 1.628 1.032 1.859 1.147s0.365 0.096 0.501-0.057c0.135-0.155 0.577-0.675 0.732-0.907 0.155-0.231 0.308-0.193 0.52-0.116s1.348 0.636 1.579 0.752 0.385 0.173 0.443 0.269c0.060 0.096 0.060 0.559-0.133 1.099zM16 0c-8.836 0-16 7.164-16 16s7.164 16 16 16 16-7.164 16-16-7.164-16-16-16zM16.039 25.173c-1.548 0-3.073-0.389-4.424-1.125l-4.903 1.285 1.312-4.793c-0.809-1.403-1.236-2.995-1.235-4.624 0.001-5.1 4.151-9.249 9.249-9.249 2.475 0.001 4.797 0.964 6.543 2.712 1.747 1.748 2.708 4.072 2.707 6.544-0.001 5.1-4.151 9.251-9.249 9.251z"></path>
</symbol>
<symbol id="icon-facebook" viewBox="0 0 32 32">
<path d="M16 0c-8.836 0-16 7.164-16 16s7.164 16 16 16 16-7.164 16-16-7.164-16-16-16zM20 10.667h-1.8c-0.717 0-0.867 0.295-0.867 1.037v1.629h2.667l-0.279 2.667h-2.388v9.333h-4v-9.333h-2.667v-2.667h2.667v-3.077c0-2.359 1.241-3.589 4.039-3.589h2.628v4z"></path>
</symbol>
<symbol id="icon-instagram" viewBox="0 0 32 32">
<path d="M19.772 8.403c-0.984-0.045-1.28-0.053-3.772-0.053s-2.787 0.009-3.771 0.053c-2.532 0.116-3.711 1.315-3.827 3.827-0.044 0.984-0.055 1.279-0.055 3.771s0.011 2.787 0.055 3.772c0.116 2.505 1.289 3.711 3.827 3.827 0.983 0.044 1.279 0.055 3.771 0.055 2.493 0 2.788-0.009 3.772-0.055 2.532-0.115 3.709-1.317 3.827-3.827 0.044-0.984 0.053-1.28 0.053-3.772s-0.009-2.787-0.053-3.771c-0.117-2.511-1.297-3.711-3.827-3.827zM16 20.793c-2.647 0-4.793-2.145-4.793-4.793 0-2.647 2.147-4.792 4.793-4.792s4.793 2.145 4.793 4.792c0 2.647-2.147 4.793-4.793 4.793zM20.983 12.139c-0.619 0-1.12-0.501-1.12-1.12s0.501-1.12 1.12-1.12c0.619 0 1.12 0.501 1.12 1.12 0 0.617-0.501 1.12-1.12 1.12zM19.111 16c0 1.719-1.393 3.111-3.111 3.111s-3.111-1.392-3.111-3.111c0-1.719 1.393-3.111 3.111-3.111s3.111 1.392 3.111 3.111zM16 0c-8.836 0-16 7.164-16 16s7.164 16 16 16 16-7.164 16-16-7.164-16-16-16zM25.277 19.848c-0.153 3.393-2.043 5.273-5.428 5.429-0.996 0.045-1.315 0.056-3.849 0.056s-2.852-0.011-3.848-0.056c-3.392-0.156-5.273-2.039-5.429-5.429-0.045-0.995-0.056-1.313-0.056-3.848s0.011-2.852 0.056-3.848c0.156-3.392 2.039-5.273 5.429-5.428 0.996-0.047 1.313-0.057 3.848-0.057s2.853 0.011 3.849 0.057c3.393 0.156 5.276 2.043 5.428 5.428 0.045 0.996 0.056 1.313 0.056 3.848s-0.011 2.853-0.056 3.848z"></path>
</symbol>
</defs>
</svg>
